<svg xmlns="http://www.w3.org/2000/svg" width="18.5" height="11.443" viewBox="0 0 18.5 11.443">
  <g id="Group_5" data-name="Group 5" transform="translate(0.07 -952.4)">
    <path id="Path_1" data-name="Path 1" d="M47.838,1000.4a.44.44,0,0,1,0,.88h-9.2a.44.44,0,0,1,0-.88Z" transform="translate(-29.848 -37.437)" fill="#fff"/>
    <path id="Path_2" data-name="Path 2" d="M49.963,952.4a.7.7,0,0,0-.286.044h0l-4.269,1.166c-.484.132-.506.352-.462.528s.176.374.638.242l4.269-1.166c.484-.132.506-.352.462-.528a.311.311,0,0,0-.352-.286Z" transform="translate(-35.098)" fill="#fff"/>
    <path id="Path_3" data-name="Path 3" d="M54.445,960.5l-3.345.9,1.254,4.753,3.345-.9Z" transform="translate(-39.91 -6.318)" fill="#fff"/>
    <path id="Path_4" data-name="Path 4" d="M10.86,974.7.408,977.517c-.484.132-.506.352-.462.528s.176.374.66.242c3.477-.946,6.976-1.893,10.453-2.839Z" transform="translate(0 -17.393)" fill="#fff"/>
    <path id="Path_5" data-name="Path 5" d="M58.684,985.2a.7.7,0,0,0-.286.044l-4.115,1.1c-.088.022-.154.044-.242.066a.46.46,0,0,0-.374.506c.044.176.176.374.66.242l4.269-1.166c.462-.132.484-.352.44-.528A.327.327,0,0,0,58.684,985.2Z" transform="translate(-41.904 -25.582)" fill="#fff"/>
  </g>
</svg>
